<svg xmlns="http://www.w3.org/2000/svg" width="512" height="512" viewBox="0 0 512 512" style="fill-rule:evenodd">
<defs>
</defs>
<path d="M 29.6881 281 C 29.9915 280.175, 32.9498 273.875, 36.2622 267 C 39.5746 260.125, 44.189 250.45, 46.5164 245.5 C 48.8438 240.55, 53.063 231.65, 55.8923 225.723 C 57.6071 222.13, 59.3218 218.538, 61.0366 214.945 C 65.6641 215.038, 70.2917 215.13, 74.9193 215.223 C 79.5468 215.315, 84.1744 215.408, 88.8019 215.5 C 87.3605 218.5, 85.9191 221.5, 84.4777 224.5 C 82.0994 229.45, 77.1693 239.8, 73.5218 247.5 C 69.8743 255.2, 65.7219 263.811, 64.2941 266.635 C 60.6724 273.8, 61.4077 275, 69.4211 275 C 71.5824 275, 73.7436 275, 75.9049 275 C 77.2177 272.25, 78.5305 269.5, 79.8432 266.75 C 82.0093 262.212, 86.0887 253.663, 88.9086 247.75 C 90.6176 244.167, 92.3266 240.583, 94.0356 237 C 98.5297 237, 103.024 237, 107.518 237 C 116.978 237, 121 237.342, 121 238.145 C 121 238.775, 119.393 242.631, 117.429 246.715 C 101.387 280.067, 98 287.258, 98 287.962 C 98 288.405, 96.1987 290.395, 93.9971 292.384 C 92.6628 293.589, 91.3285 294.795, 89.9942 296 C 81.4325 296, 72.8707 296, 64.309 296 C 39.5468 296, 38.5093 295.922, 35.4383 293.817 C 33.6864 292.617, 31.8032 290.915, 31.2536 290.034 C 29.8872 287.846, 29.0171 282.825, 29.6881 281 Z " fill="rgb(24,153,132)" />
<path d="M 186 237 C 179.454 237, 172.907 237, 166.361 237 C 164.907 240.083, 163.453 243.167, 161.999 246.25 C 159.6 251.337, 153.215 264.625, 147.809 275.777 C 144.533 282.537, 141.257 289.296, 137.981 296.055 C 133.278 295.962, 128.575 295.87, 123.872 295.777 C 119.169 295.685, 114.466 295.592, 109.763 295.5 C 110.767 293.333, 111.77 291.167, 112.773 289 C 114.429 285.425, 117.719 278.225, 120.084 273 C 122.45 267.775, 125.839 260.35, 127.616 256.5 C 129.393 252.65, 132.065 246.688, 133.554 243.25 C 134.457 241.167, 135.359 239.083, 136.261 237 C 134.218 237, 132.174 237, 130.131 237 C 126.759 237, 124 236.605, 124 236.122 C 124 235.639, 126.112 230.683, 128.693 225.109 C 130.258 221.731, 131.822 218.353, 133.387 214.975 C 145.21 215.063, 157.034 215.15, 168.858 215.238 C 180.682 215.325, 192.506 215.413, 204.33 215.5 C 202.775 219.083, 201.22 222.667, 199.665 226.25 C 198.11 229.833, 196.555 233.417, 195 237 C 192 237, 189 237, 186 237 Z " fill="rgb(24,153,132)" />
<path d="M 195 237 C 235.123 237, 238 237.205, 238 238.529 C 238 239.369, 236.644 242.744, 234.986 246.029 C 233.981 248.019, 232.976 250.01, 231.971 252 C 228.534 252, 225.096 252, 221.658 252 C 218.221 252, 214.783 252, 211.345 252 C 208.538 257.891, 205.73 263.782, 202.923 269.673 C 198.29 279.394, 193.534 289.181, 192.354 291.423 C 191.639 292.782, 190.924 294.141, 190.208 295.5 C 187.09 295.588, 183.972 295.676, 180.854 295.765 C 177.736 295.853, 174.618 295.941, 171.5 296.029 C 172.553 293.774, 173.606 291.52, 174.659 289.265 C 176.396 285.544, 181.085 275.638, 185.079 267.25 C 187.5 262.167, 189.92 257.083, 192.341 252 C 190.367 251.999, 188.394 251.997, 186.42 251.996 C 184.447 251.994, 182.473 251.993, 180.5 251.992 C 181.417 249.493, 182.333 246.994, 183.25 244.496 C 184.167 241.997, 185.083 239.499, 186 237 C 189 237, 192 237, 195 237 Z " fill="rgb(238,112,50)" />
<path d="M 224.812 284.896 C 227.39 279.614, 233.521 266.902, 238.436 256.646 C 241.415 250.431, 244.393 244.215, 247.372 238 C 254.505 238, 261.637 238, 268.769 238 C 280.538 238, 290.006 238.337, 289.809 238.75 C 288.134 242.263, 285.041 246.895, 282.827 249.208 C 280.191 251.961, 279.987 252, 268.115 252 C 264.102 252, 260.089 252, 256.076 252 C 255.457 253.417, 254.838 254.833, 254.219 256.25 C 253.601 257.667, 252.982 259.083, 252.363 260.5 C 255.159 260.597, 257.956 260.693, 260.752 260.79 C 265.365 260.949, 268.984 261.399, 268.794 261.79 C 265.52 268.507, 264.335 270.622, 263.5 271.235 C 262.95 271.639, 258.9 271.978, 254.5 271.988 C 251.833 271.995, 249.167 272.001, 246.5 272.008 C 245.917 273.426, 245.333 274.845, 244.75 276.264 C 243.788 278.605, 243 280.854, 243 281.26 C 243 281.667, 248.625 282, 255.5 282 C 264.842 282, 267.996 282.316, 267.983 283.25 C 267.974 283.938, 266.721 286.975, 265.198 290 C 264.275 291.833, 263.353 293.667, 262.43 295.5 C 255.358 295.59, 248.286 295.68, 241.215 295.77 C 229.547 295.918, 220.028 295.693, 220.062 295.27 C 220.096 294.846, 222.233 290.178, 224.812 284.896 Z " fill="rgb(237,111,47)" />
<path d="M 329.055 288.5 C 336.018 274.265, 347.849 249.05, 348.441 247.185 C 348.796 246.069, 350.877 243.537, 353.066 241.559 C 354.393 240.361, 355.72 239.162, 357.046 237.963 C 364.652 238.053, 372.258 238.142, 379.864 238.232 C 387.47 238.321, 395.076 238.411, 402.682 238.5 C 398.572 247.167, 394.463 255.833, 390.354 264.5 C 383.574 278.8, 377.594 291.737, 377.065 293.25 C 376.112 295.978, 376.03 296, 367.021 296 C 360.272 296, 357.803 295.649, 357.414 294.636 C 357.126 293.886, 358.715 289.377, 360.945 284.617 C 363.175 279.856, 365 275.52, 365 274.981 C 365 274.441, 362.638 274.01, 359.75 274.023 C 358 274.031, 356.25 274.038, 354.5 274.046 C 353.177 276.903, 351.855 279.76, 350.532 282.617 C 345.136 294.275, 342.93 296, 333.423 296 C 329.34 296, 326.027 295.663, 326.06 295.25 C 326.093 294.837, 327.441 291.8, 329.055 288.5 Z M 370.655 252 C 365.764 252, 363.97 253.435, 361.515 259.309 C 359.685 263.691, 360.405 264.333, 366.573 263.817 C 369.93 263.536, 370.613 262.995, 372.649 259 C 375.895 252.635, 375.714 252, 370.655 252 Z " fill="rgb(238,112,48)" />
<path d="M 389.111 285.5 C 391.757 280, 395.14 272.8, 396.629 269.5 C 404.469 252.123, 408.545 244.567, 411.77 241.435 C 412.957 240.282, 414.144 239.129, 415.331 237.976 C 427.771 238.064, 440.212 238.151, 452.652 238.238 C 465.092 238.325, 477.532 238.413, 489.973 238.5 C 489.446 239.5, 488.919 240.5, 488.393 241.5 C 487.524 243.15, 482.105 254.625, 476.351 267 C 470.598 279.375, 465.137 290.962, 464.218 292.75 C 463.66 293.833, 463.103 294.917, 462.545 296 C 459.611 296, 456.676 296, 453.741 296 C 446.954 296, 444.809 295.666, 444.378 294.543 C 444.071 293.742, 445.397 289.804, 447.325 285.793 C 455.582 268.618, 463 252.83, 463 252.431 C 463 251.553, 456.8 252.036, 454.88 253.064 C 453.787 253.649, 450.849 258.487, 448.351 263.814 C 445.853 269.141, 442.121 277.1, 440.057 281.5 C 437.992 285.9, 435.731 290.962, 435.03 292.75 C 434.606 293.833, 434.182 294.917, 433.757 296 C 430.954 296, 428.151 296, 425.347 296 C 418.831 296, 416.809 295.665, 416.367 294.515 C 416.054 293.698, 417.92 288.635, 420.515 283.265 C 423.11 277.894, 426.752 269.981, 428.608 265.681 C 430.464 261.381, 432.662 256.893, 433.492 255.709 C 434.321 254.524, 435 253.205, 435 252.777 C 435 251.239, 427.21 252.01, 425.183 253.75 C 424.061 254.712, 419.491 263.375, 415.027 273 C 409.851 284.162, 405.82 291.51, 403.897 293.288 C 401.035 295.936, 400.466 296.062, 392.591 295.788 C 389.827 295.692, 387.063 295.596, 384.299 295.5 C 385.903 292.167, 387.507 288.833, 389.111 285.5 Z " fill="rgb(238,112,48)" />
<path d="M 277.75 284.909 C 282.721 283.026, 285.009 279.752, 293.47 262.417 C 301.542 245.88, 301.976 245.227, 305.937 243.642 C 312.392 241.059, 313.5 241.567, 309.701 245.366 C 307.697 247.37, 303.204 255.159, 298.597 264.616 C 294.342 273.352, 289.722 281.696, 288.332 283.157 C 286.941 284.619, 284.16 286.105, 282.152 286.46 C 280.143 286.816, 277.712 287.338, 276.75 287.621 C 273.876 288.465, 274.771 286.037, 277.75 284.909 Z " fill="rgb(243,178,60)" />
<path d="M 295.629 293.514 C 296.652 292.491, 297.861 292.17, 298.879 292.65 C 299.771 293.071, 304.067 293.584, 308.427 293.79 C 317.446 294.215, 317.085 295.959, 307.972 295.985 C 303.694 295.997, 302.057 296.452, 300.732 298 C 298.668 300.411, 297.639 300.496, 295.571 298.429 C 293.586 296.443, 293.597 295.546, 295.629 293.514 Z " fill="rgb(239,180,65)" />
<path d="M 314.5 241.15 C 314.667 241.1, 314.833 241.05, 315 241 C 315.167 241.05, 315.333 241.1, 315.5 241.15 C 315.775 241.232, 315.55 241.3, 315 241.3 C 314.45 241.3, 314.225 241.232, 314.5 241.15 Z " fill="rgb(229,185,120)" />
<path d="M 319.923 241.569 C 322.222 239.489, 322.641 236.041, 320.817 234.217 C 318.877 232.277, 320.702 231.639, 324.218 233.026 C 328.681 234.786, 329.152 235.315, 329.396 238.84 C 329.595 241.709, 329.318 241.964, 324.832 243.04 C 318.822 244.482, 317.231 244.005, 319.923 241.569 Z " fill="rgb(226,116,58)" />
<path d="M 330.724 243.691 C 331.947 243.246, 333.812 241.783, 334.868 240.441 C 336.346 238.561, 337.732 238, 340.894 238 C 343.152 238, 344.997 238.337, 344.993 238.75 C 344.975 240.763, 337.838 244.175, 333.318 244.332 C 329.842 244.453, 329.119 244.275, 330.724 243.691 Z " fill="rgb(241,179,62)" />
<path d="M 331.799 238.624 C 332.466 238.212, 333 238.39, 333 239.024 C 333 239.653, 332.46 239.987, 331.799 239.766 C 331.399 239.633, 330.999 239.5, 330.599 239.366 C 330.999 239.119, 331.399 238.871, 331.799 238.624 Z " fill="rgb(217,123,80)" />
<path d="M 279.582 276.847 C 281.615 272.835, 281.74 272.029, 280.491 270.992 C 279.468 270.143, 279.319 269.272, 279.986 268.026 C 280.505 267.057, 280.681 266.014, 280.377 265.71 C 279.417 264.75, 284.298 259, 286.073 259 C 287.999 259, 289.496 256.855, 293.03 249.029 C 296.543 241.248, 300.323 238.066, 306.095 238.029 C 309.394 238.008, 311.201 237.436, 312.5 236 C 314.506 233.783, 316.525 233.423, 317.559 235.096 C 318.663 236.882, 315.873 238.614, 309.811 239.905 C 306.682 240.571, 302.898 242.079, 301.402 243.256 C 299.684 244.607, 295.749 251.474, 290.726 261.884 C 282.589 278.747, 281.44 280.6, 278.762 281.172 C 277.538 281.433, 277.705 280.55, 279.582 276.847 Z " fill="rgb(233,117,59)" />
<path d="M 271.689 292.751 C 272.165 290.931, 273.596 290.444, 280.787 289.652 C 288.469 288.807, 291.224 285.635, 300.313 267.172 C 306.245 255.123, 309.189 250.196, 311 249.286 C 312.501 248.531, 317.498 248.024, 323.507 248.015 C 329.01 248.007, 334.973 247.581, 336.757 247.07 C 340.782 245.915, 340.934 247.199, 337.096 249.932 C 334.618 251.696, 332.7 252, 324.03 252 C 318.441 252, 312.97 252.481, 311.872 253.068 C 309.822 254.166, 296.864 279.884, 297.674 281.25 C 297.918 281.663, 303.716 282, 310.559 282 C 317.402 282, 323 282.288, 323 282.64 C 323 282.993, 322.02 285.243, 320.823 287.64 C 320.097 289.094, 319.371 290.547, 318.645 292 C 316.327 292, 314.008 292, 311.689 292 C 307.863 292, 303.013 291.485, 300.911 290.855 C 297.707 289.895, 296.68 289.98, 294.545 291.378 C 291.747 293.212, 291.078 297.625, 293.25 299.921 C 294.28 301.01, 293.795 301.117, 290.5 300.532 C 288.3 300.141, 285.916 299.338, 285.202 298.748 C 283.153 297.055, 284.202 293.66, 287 292.929 C 289.202 292.353, 289.284 292.184, 287.686 291.506 C 285.382 290.529, 281 292.477, 281 294.479 C 281 295.638, 279.809 296, 276 296 C 273.25 296, 271.052 295.663, 271.116 295.25 C 271.18 294.837, 271.438 293.713, 271.689 292.751 Z " fill="rgb(233,115,56)" />
</svg>
